<?xml version="1.0" standalone="no"?>
<!DOCTYPE svg PUBLIC "-//W3C//DTD SVG 20010904//EN"
 "http://www.w3.org/TR/2001/REC-SVG-20010904/DTD/svg10.dtd">
<svg version="1.0" xmlns="http://www.w3.org/2000/svg"
 width="2000.000000pt" height="2000.000000pt" viewBox="0 0 2000.000000 2000.000000"
 preserveAspectRatio="xMidYMid meet">
<metadata>
Created by potrace 1.16, written by Peter Selinger 2001-2019
</metadata>
<g transform="translate(0.000000,2000.000000) scale(0.100000,-0.100000)"
fill="currentColor" stroke="none">
<path d="M13410 12760 c0 -440 -2 -800 -6 -800 -3 0 -426 310 -940 690 l-934
689 -308 -127 c-1484 -615 -6460 -2687 -6458 -2690 2 -1 1521 526 3376 1172
2804 977 3376 1173 3390 1163 14 -10 981 -835 2425 -2070 l370 -316 508 -1
c279 0 507 1 507 3 0 2 -245 190 -544 418 l-545 414 0 1128 -1 1127 -420 0
-420 0 0 -800z"/>
<path d="M10945 11787 c-3 -7 -4 -91 -3 -187 l3 -175 243 -3 242 -2 -2 187 -3
188 -238 3 c-188 2 -239 0 -242 -11z"/>
<path d="M11575 11787 c-3 -7 -4 -91 -3 -187 l3 -175 243 -3 242 -2 -2 187 -3
188 -238 3 c-188 2 -239 0 -242 -11z"/>
<path d="M10944 11267 c-2 -7 -3 -91 -2 -187 l3 -175 240 0 240 0 3 188 2 187
-240 0 c-187 0 -242 -3 -246 -13z"/>
<path d="M11574 11267 c-2 -7 -3 -91 -2 -187 l3 -175 240 0 240 0 3 188 2 187
-240 0 c-187 0 -242 -3 -246 -13z"/>
<path d="M5907 10428 c-13 -18 -34 -53 -46 -78 -31 -64 -40 -74 -108 -114 -74
-43 -144 -113 -184 -183 -16 -29 -93 -218 -170 -420 -77 -202 -148 -376 -156
-385 -17 -19 -39 -23 -47 -9 -3 5 -11 43 -17 86 -14 94 -36 123 -99 136 -61
11 -209 11 -295 -1 -58 -8 -75 -15 -97 -40 -36 -40 -50 -97 -50 -207 1 -156
15 -165 296 -186 109 -9 200 -18 203 -21 10 -10 -16 -64 -72 -151 -109 -167
-180 -347 -206 -525 -12 -85 -11 -126 11 -665 5 -126 9 -419 9 -651 l1 -420
28 -55 c21 -42 37 -59 72 -76 43 -22 54 -23 307 -23 282 0 306 4 350 51 41 46
47 76 53 294 l5 210 1365 0 1365 0 5 -215 c6 -249 11 -266 99 -313 l49 -27
260 0 c160 0 272 4 289 11 40 15 73 48 94 94 17 37 19 73 19 420 1 209 6 499
11 645 22 606 22 669 5 765 -32 171 -79 286 -200 485 -42 69 -76 130 -76 137
0 12 27 16 240 32 187 14 219 25 248 81 26 52 29 134 8 225 -26 110 -97 140
-315 133 -81 -3 -147 -10 -162 -17 -35 -17 -49 -50 -60 -135 -10 -78 -21 -96
-47 -80 -10 7 -79 172 -168 402 -83 214 -163 410 -177 434 -37 63 -113 132
-187 171 -61 31 -67 38 -100 105 -45 92 -65 112 -107 112 -50 0 -73 -29 -73
-92 0 -29 -4 -59 -9 -67 -7 -11 -68 -11 -382 3 -456 20 -641 20 -1144 1 -214
-8 -413 -15 -441 -15 l-51 0 -6 65 c-6 81 -24 105 -78 105 -31 0 -42 -6 -62
-32z m1948 -358 c271 -11 406 -28 455 -57 14 -8 35 -29 47 -48 27 -40 303
-773 303 -803 0 -42 -33 -50 -170 -42 -499 32 -1883 37 -2635 9 -339 -12 -367
-12 -378 4 -17 25 7 104 142 461 151 397 164 421 239 444 39 13 309 27 762 42
315 10 841 6 1235 -10z m-2405 -1505 c343 -26 323 -15 375 -218 37 -148 43
-208 21 -226 -17 -14 -626 14 -669 31 -49 19 -57 51 -57 223 0 227 -18 217
330 190z m3520 5 c35 -19 43 -73 36 -229 -4 -80 -11 -152 -16 -162 -5 -9 -22
-21 -37 -27 -45 -18 -636 -47 -662 -33 -34 19 -32 66 10 234 16 65 35 126 41
136 27 44 62 52 296 71 280 22 309 23 332 10z m-936 -81 c37 -17 48 -60 35
-133 -14 -80 -96 -295 -123 -324 -47 -52 -16 -51 -872 -53 -795 -2 -799 -2
-847 19 -44 19 -51 28 -81 94 -19 40 -46 111 -61 158 -45 144 -46 222 -2 240
34 14 1920 13 1951 -1z m-2533 -842 c39 -26 69 -79 69 -122 0 -77 -69 -145
-147 -145 -83 0 -144 61 -145 144 -2 115 128 187 223 123z m3280 0 c67 -44 88
-135 47 -197 -37 -54 -69 -72 -127 -72 -86 1 -144 61 -144 148 0 113 130 184
224 121z m-764 -208 c65 -24 122 -110 162 -245 11 -39 21 -74 21 -78 0 -3
-511 -6 -1136 -6 l-1136 0 7 38 c26 147 78 247 146 280 l44 22 932 0 c634 0
941 -3 960 -11z"/>
</g>
</svg>
