<?xml version="1.0" standalone="no"?>
<!DOCTYPE svg PUBLIC "-//W3C//DTD SVG 20010904//EN"
 "http://www.w3.org/TR/2001/REC-SVG-20010904/DTD/svg10.dtd">
<svg version="1.0" xmlns="http://www.w3.org/2000/svg"
 width="2000.000000pt" height="2000.000000pt" viewBox="0 0 2000.000000 2000.000000"
 preserveAspectRatio="xMidYMid meet">
<metadata>
Created by potrace 1.16, written by Peter Selinger 2001-2019
</metadata>
<g transform="translate(0.000000,2000.000000) scale(0.100000,-0.100000)"
fill="currentColor" stroke="none">
<path d="M11680 12760 c0 -440 -3 -800 -7 -800 -8 0 -1822 1337 -1854 1366
-16 15 -254 -83 -3403 -1392 -1862 -774 -3384 -1409 -3382 -1411 1 -1 1520
526 3376 1172 3319 1156 3374 1175 3394 1157 18 -16 1134 -968 2466 -2105
l325 -277 510 0 c403 1 507 3 494 13 -9 7 -255 194 -547 417 l-531 405 -1
1128 0 1127 -420 0 -420 0 0 -800z"/>
<path d="M9217 11794 c-4 -4 -7 -90 -7 -191 l0 -183 243 2 242 3 0 185 0 185
-236 3 c-129 1 -238 -1 -242 -4z"/>
<path d="M9847 11794 c-4 -4 -7 -90 -7 -191 l0 -183 245 0 245 0 -2 188 -3
187 -236 3 c-129 1 -238 -1 -242 -4z"/>
<path d="M9212 11093 l3 -188 240 0 240 0 3 188 2 187 -245 0 -245 0 2 -187z"/>
<path d="M9842 11093 l3 -188 240 0 240 0 3 188 2 187 -245 0 -245 0 2 -187z"/>
<path d="M4183 10438 c-12 -13 -35 -51 -52 -85 -17 -34 -41 -69 -53 -78 -13
-8 -51 -34 -85 -56 -71 -46 -128 -110 -168 -189 -16 -30 -90 -217 -165 -414
-100 -264 -143 -364 -159 -374 -31 -21 -40 -8 -53 74 -5 38 -17 81 -24 96 -25
48 -45 53 -224 53 -180 -1 -228 -10 -254 -50 -44 -67 -60 -241 -28 -305 27
-56 63 -66 286 -84 109 -8 201 -18 204 -20 8 -9 -20 -67 -71 -145 -75 -114
-154 -286 -183 -397 -34 -128 -41 -293 -25 -599 6 -126 14 -471 19 -766 l7
-536 28 -42 c19 -28 44 -49 73 -62 41 -18 64 -20 318 -17 314 3 310 2 356 94
24 46 25 60 30 254 l5 205 1361 3 1361 2 7 -31 c3 -17 6 -111 6 -208 0 -207
10 -241 81 -288 l43 -28 286 0 287 0 35 27 c75 57 72 31 79 708 4 353 11 663
19 745 15 164 9 390 -13 490 -31 141 -85 267 -182 424 -29 47 -62 105 -74 128
l-21 42 53 5 c28 3 115 10 192 15 209 16 243 31 266 116 12 43 6 145 -12 209
-26 92 -103 120 -315 114 -190 -6 -202 -14 -219 -160 -7 -65 -27 -90 -52 -66
-8 9 -83 193 -167 410 -89 229 -165 413 -184 440 -41 60 -102 112 -177 152
-55 29 -63 38 -97 105 -49 97 -63 111 -108 111 -51 0 -68 -22 -76 -104 l-7
-69 -156 7 c-86 4 -250 11 -366 16 -303 14 -523 12 -1028 -6 -246 -9 -454 -14
-462 -10 -11 4 -15 21 -15 63 0 76 -18 103 -69 103 -26 0 -44 -7 -58 -22z
m1942 -368 c373 -15 449 -31 501 -107 11 -17 84 -200 163 -408 145 -384 152
-413 113 -433 -9 -5 -80 -6 -162 -1 -271 15 -944 29 -1365 29 -444 0 -1308
-17 -1460 -28 -49 -4 -108 -5 -130 -2 -69 9 -65 29 90 442 75 200 146 379 156
398 50 88 85 94 619 110 206 6 407 12 445 14 118 6 744 -3 1030 -14z m-2364
-1509 c124 -10 236 -24 247 -30 35 -18 49 -48 81 -171 48 -186 51 -232 13
-244 -10 -3 -148 1 -307 9 -160 8 -303 15 -318 15 -18 0 -39 11 -58 29 l-29
29 0 171 0 170 26 20 c33 26 52 26 345 2z m3489 -1 c18 -18 20 -33 20 -191 l0
-171 -29 -29 c-16 -16 -40 -29 -53 -29 -13 0 -158 -7 -322 -16 l-299 -17 -19
23 c-10 12 -18 32 -18 43 0 33 61 278 76 309 26 50 61 59 298 78 306 24 322
24 346 0z m-935 -82 c26 -20 27 -24 23 -92 -6 -78 -83 -304 -120 -351 -44 -56
-9 -54 -879 -55 -598 -2 -812 1 -834 10 -51 20 -73 50 -114 154 -52 134 -73
217 -69 279 3 43 7 54 28 64 20 10 232 13 981 13 l956 0 28 -22z m-2561 -822
c71 -30 105 -128 68 -196 -27 -50 -76 -80 -129 -80 -88 0 -147 57 -148 144 -1
110 104 176 209 132z m3280 0 c63 -26 99 -111 76 -180 -6 -20 -28 -49 -48 -66
-31 -26 -45 -30 -94 -30 -50 0 -62 4 -93 31 -40 36 -60 92 -51 142 17 92 118
142 210 103z m-747 -217 c64 -24 113 -95 152 -224 12 -38 24 -78 27 -87 5 -17
-53 -18 -1130 -18 -1059 0 -1136 1 -1136 17 0 67 67 239 107 275 53 48 25 47
1020 48 635 0 941 -3 960 -11z"/>
<path d="M13293 8639 c-146 -28 -268 -140 -308 -283 -12 -42 -16 -83 -13 -142
4 -70 10 -94 41 -158 43 -87 93 -135 184 -178 125 -59 264 -58 390 3 244 118
298 455 104 649 -96 96 -250 139 -398 109z m253 -102 c67 -34 138 -114 159
-178 55 -164 -16 -344 -163 -416 -50 -25 -68 -28 -152 -28 -84 0 -102 3 -151
28 -67 32 -133 100 -161 165 -61 137 -13 314 108 401 67 49 115 61 219 58 74
-3 99 -8 141 -30z"/>
<path d="M8220 8240 l0 -400 189 0 c103 0 213 5 242 10 132 25 255 122 300
238 18 45 23 78 23 157 1 92 -2 105 -31 167 -51 109 -139 182 -258 212 -44 12
-111 16 -262 16 l-203 0 0 -400z m487 296 c64 -29 128 -88 156 -142 8 -16 20
-56 27 -90 22 -112 -16 -233 -97 -304 -76 -67 -133 -82 -320 -88 l-163 -4 0
332 0 332 168 -4 c159 -3 170 -5 229 -32z"/>
<path d="M9170 8240 l0 -400 45 0 45 0 0 125 0 125 88 0 c48 0 110 3 137 6
l50 5 89 -126 c49 -70 95 -129 101 -132 7 -2 29 -3 48 -1 l35 3 -94 130 c-51
72 -93 133 -93 136 -1 3 17 14 39 24 169 76 187 345 31 448 -71 47 -128 57
-333 57 l-188 0 0 -400z m390 319 c56 -12 111 -53 136 -100 8 -16 14 -55 14
-91 0 -88 -27 -134 -99 -170 -52 -27 -61 -28 -203 -28 l-148 0 0 200 0 200
125 0 c68 0 147 -5 175 -11z"/>
<path d="M10000 8240 l0 -400 45 0 45 0 0 400 0 400 -45 0 -45 0 0 -400z"/>
<path d="M10245 8583 c15 -32 94 -212 178 -400 l151 -343 41 0 42 0 163 368
c90 202 169 382 177 400 l13 32 -42 0 -43 0 -150 -341 c-82 -187 -152 -342
-155 -344 -3 -2 -73 150 -156 338 l-151 342 -46 3 -47 3 25 -58z"/>
<path d="M11150 8240 l0 -400 280 0 280 0 0 35 0 35 -240 0 -240 0 0 150 0
150 208 2 207 3 3 33 3 32 -210 0 -211 0 0 145 0 145 235 0 235 0 0 35 0 35
-275 0 -275 0 0 -400z"/>
<path d="M12210 8240 l0 -400 45 0 45 0 0 124 0 123 153 6 c194 7 242 20 312
90 62 63 80 116 72 213 -6 82 -43 146 -110 191 -66 44 -122 53 -332 53 l-185
0 0 -400z m408 315 c68 -20 115 -68 131 -130 24 -96 -9 -180 -89 -225 -42 -23
-56 -25 -202 -28 l-158 -4 0 201 0 201 133 0 c91 0 150 -5 185 -15z"/>
<path d="M14000 8240 l0 -400 40 0 40 0 0 400 0 400 -40 0 -40 0 0 -400z"/>
<path d="M14350 8240 l0 -400 40 0 40 0 2 323 3 323 255 -322 c253 -321 255
-323 293 -324 l37 0 0 400 0 400 -45 0 -45 0 -2 -320 -3 -320 -254 320 c-243
307 -255 320 -287 320 l-34 0 0 -400z"/>
<path d="M15150 8605 l0 -35 140 0 140 0 0 -365 0 -365 45 0 45 0 0 365 0 365
140 0 140 0 0 35 0 35 -325 0 -325 0 0 -35z"/>
<path d="M8970 7391 c-135 -41 -194 -168 -129 -276 25 -43 75 -68 218 -110 69
-20 137 -45 152 -56 69 -49 54 -144 -31 -186 -81 -41 -229 -26 -315 32 -20 14
-38 25 -40 23 -1 -2 -8 -14 -15 -27 -12 -22 -10 -27 16 -48 47 -37 147 -66
233 -66 134 1 209 35 249 113 26 52 28 95 6 149 -22 56 -71 85 -212 125 -67
20 -135 42 -152 51 -98 51 -71 182 45 215 63 18 161 8 228 -23 l56 -25 10 29
c12 34 -2 47 -82 73 -50 17 -191 21 -237 7z"/>
<path d="M9681 7385 c-182 -59 -289 -261 -235 -446 48 -165 183 -262 364 -261
120 0 186 26 266 106 78 78 104 143 104 256 0 103 -26 173 -90 243 -28 31 -72
65 -107 82 -50 25 -71 29 -158 32 -67 2 -115 -2 -144 -12z m254 -74 c62 -27
119 -84 146 -144 35 -76 33 -193 -3 -262 -57 -108 -145 -160 -273 -160 -93 1
-154 24 -212 83 -111 111 -112 310 -2 420 86 87 231 113 344 63z"/>
<path d="M10360 7040 l0 -360 241 0 240 0 -3 33 -3 32 -202 3 -203 2 0 325 0
325 -35 0 -35 0 0 -360z"/>
<path d="M10950 7188 c0 -117 5 -240 10 -273 13 -80 47 -143 98 -182 54 -41
108 -56 197 -55 125 1 206 46 252 140 l28 57 3 263 3 262 -35 0 -35 0 -3 -252
c-3 -242 -4 -255 -26 -301 -36 -71 -94 -102 -192 -102 -99 0 -153 28 -189 100
-26 49 -26 54 -29 302 l-3 253 -40 0 -39 0 0 -212z"/>
<path d="M11660 7365 l0 -35 125 0 125 0 0 -325 0 -325 40 0 40 0 0 325 0 325
125 0 125 0 0 35 0 35 -290 0 -290 0 0 -35z"/>
<path d="M12360 7040 l0 -360 40 0 40 0 0 360 0 360 -40 0 -40 0 0 -360z"/>
<path d="M12853 7382 c-101 -36 -167 -96 -212 -192 -22 -47 -26 -69 -26 -150
0 -82 4 -103 26 -151 53 -113 154 -188 280 -208 172 -28 335 54 410 206 21 41
24 63 24 153 0 101 -1 108 -34 168 -41 75 -94 125 -170 161 -75 35 -219 41
-298 13z m274 -77 c102 -50 157 -143 157 -265 0 -124 -55 -214 -162 -267 -48
-24 -70 -28 -137 -28 -67 0 -89 5 -137 28 -108 53 -163 144 -161 267 1 82 10
115 51 173 79 115 255 157 389 92z"/>
<path d="M13537 7393 c-4 -3 -7 -165 -7 -360 l0 -353 40 0 40 0 2 289 3 289
229 -289 c204 -258 232 -289 257 -289 l29 0 0 360 0 360 -35 0 -35 0 -2 -290
-3 -289 -229 289 c-197 249 -234 290 -256 290 -15 0 -30 -3 -33 -7z"/>
<path d="M14457 7385 c-87 -33 -137 -97 -137 -175 0 -104 55 -152 227 -200 65
-18 130 -39 145 -46 59 -30 83 -91 56 -149 -41 -90 -251 -100 -379 -19 l-39
24 -15 -30 -15 -29 45 -27 c67 -39 131 -55 221 -56 168 -2 264 68 264 193 0
106 -50 147 -239 199 -135 36 -165 52 -187 98 -32 68 12 139 100 163 59 16
165 5 226 -24 l51 -25 10 25 c14 37 13 39 -43 64 -67 29 -231 37 -291 14z"/>
</g>
</svg>
